 <svg version="1.0" xmlns="http://www.w3.org/2000/svg"  width="300.000000pt" height="161.000000pt" viewBox="0 0 300.000000 161.000000"  preserveAspectRatio="xMidYMid meet">  <g transform="translate(0.000000,161.000000) scale(0.100000,-0.100000)" fill="#000000" stroke="none"> <path d="M0 1565 c0 -38 3 -45 19 -45 21 0 37 -17 27 -27 -4 -4 -12 -1 -18 5 -7 7 -16 12 -20 12 -4 0 -8 -340 -8 -755 l0 -755 64 0 c44 0 67 5 76 15 14 17 30 20 30 6 0 -5 -8 -12 -18 -14 -9 -3 628 -5 1415 -6 l1433 -1 0 135 c0 77 -4 135 -9 135 -5 0 -11 -12 -13 -27 -4 -39 -28 -42 -28 -4 l0 31 -60 0 -59 0 -3 -102 c-4 -136 -22 -136 -26 -1 l-3 103 -69 0 c-65 0 -86 9 -59 26 6 3 38 6 70 5 l58 -1 3 72 c2 40 8 73 13 73 6 0 11 -33 13 -72 l3 -73 59 0 60 0 0 150 c0 83 4 150 9 150 11 0 23 -122 20 -217 -1 -51 2 -78 9 -81 9 -3 12 129 12 527 l-1 531 -47 25 c-103 53 -113 57 -128 44 -21 -17 -17 -2 6 21 15 15 20 33 20 74 0 78 -11 86 -121 86 -120 0 -139 -12 -139 -86 0 -40 4 -56 18 -64 16 -10 16 -10 0 -20 -13 -8 -18 -24 -18 -60 0 -28 -4 -50 -10 -50 -5 0 -10 14 -10 30 0 29 -1 30 -49 30 -47 0 -76 13 -49 23 7 2 -3 7 -23 11 -51 9 -63 27 -56 81 7 49 3 53 -31 29 -12 -8 -23 -13 -23 -10 -1 3 -3 11 -4 16 -1 6 -3 15 -4 20 0 6 -4 9 -8 9 -20 -3 -23 3 -13 21 10 18 8 20 -21 20 -18 0 -56 -12 -86 -26 -58 -29 -83 -24 -44 7 23 19 22 19 -158 19 -114 0 -181 -4 -181 -10 0 -5 -8 -10 -17 -10 -15 0 -16 2 -3 10 11 7 3 10 -28 10 -24 0 -41 -4 -37 -9 3 -5 1 -12 -4 -15 -4 -3 -12 -29 -15 -58 -4 -29 -14 -60 -22 -69 -20 -23 -8 -29 66 -33 40 -2 68 -9 78 -20 15 -15 14 -16 -8 -16 -14 -1 -36 -7 -50 -15 l-25 -15 23 -6 c47 -14 18 -23 -83 -26 -58 -2 -105 0 -105 5 0 4 7 7 15 7 8 0 15 4 15 9 0 5 9 11 21 14 12 3 19 11 16 19 -4 13 -16 14 -46 7 -10 -3 -17 8 -22 36 -9 54 -3 63 39 67 39 3 53 22 25 32 -10 4 -19 2 -21 -3 -3 -9 -48 -5 -61 5 -1 1 9 18 23 37 14 19 26 37 26 40 0 4 -364 7 -810 7 l-810 0 0 -45z m2790 25 c-8 -6 -24 -15 -35 -21 -16 -8 -15 -6 4 10 13 12 28 21 35 21 6 0 4 -5 -4 -10z m-2610 -10 c0 -5 -4 -10 -9 -10 -6 0 -13 5 -16 10 -3 6 1 10 9 10 9 0 16 -4 16 -10z m745 -50 c3 -5 1 -10 -4 -10 -6 0 -11 5 -11 10 0 6 2 10 4 10 3 0 8 -4 11 -10z m-648 -27 c-4 -3 -7 0 -7 7 0 7 3 10 7 7 3 -4 3 -10 0 -14z m2433 7 c0 -5 -4 -10 -10 -10 -5 0 -10 5 -10 10 0 6 5 10 10 10 6 0 10 -4 10 -10z m-1705 -15 c13 -1 23 -13 29 -33 7 -26 14 -32 38 -32 16 0 45 -7 66 -16 36 -16 37 -17 12 -24 -14 -5 -50 -8 -81 -9 -50 -1 -58 2 -83 30 -15 17 -37 47 -49 66 l-20 35 34 -7 c19 -5 43 -9 54 -10z m1332 -22 c-4 -3 -7 0 -7 7 0 7 3 10 7 7 3 -4 3 -10 0 -14z m-297 3 c0 -3 -5 -8 -12 -12 -7 -4 -8 -3 -4 4 7 12 16 16 16 8z m-1755 -36 c3 -5 -1 -10 -9 -10 -9 0 -16 5 -16 10 0 6 4 10 9 10 6 0 13 -4 16 -10z m42 -7 c-4 -3 -10 -3 -14 0 -3 4 0 7 7 7 7 0 10 -3 7 -7z m1629 -28 c-8 -8 -18 -15 -22 -15 -3 0 -1 7 6 15 7 8 17 15 22 15 5 0 3 -7 -6 -15z m834 0 c-7 -8 -18 -15 -24 -15 -6 0 -22 -6 -36 -14 -133 -73 -136 -74 -125 -56 4 6 21 17 38 25 18 8 55 28 82 44 56 34 86 41 65 16z m77 -12 c-4 -3 -10 -3 -14 0 -3 4 0 7 7 7 7 0 10 -3 7 -7z m-500 -20 c-4 -3 -7 0 -7 7 0 7 3 10 7 7 3 -4 3 -10 0 -14z m-2330 -20 c-4 -3 -7 0 -7 7 0 7 3 10 7 7 3 -4 3 -10 0 -14z m2338 -13 c3 -5 -1 -10 -10 -10 -9 0 -13 5 -10 10 3 6 8 10 10 10 2 0 7 -4 10 -10z m-2338 -22 c-3 -8 -6 -5 -6 6 -1 11 2 17 5 13 3 -3 4 -12 1 -19z m941 15 c-10 -2 -28 -2 -40 0 -13 2 -5 4 17 4 22 1 32 -1 23 -4z m-922 -53 c8 0 14 -4 14 -10 0 -5 -11 -10 -25 -10 -28 0 -28 1 -18 26 4 11 8 13 11 6 2 -7 10 -12 18 -12z m1586 -9 c45 -10 122 -55 148 -86 9 -10 32 -15 79 -16 59 -1 62 -2 31 -10 -19 -5 -45 -10 -57 -11 -17 -2 -19 -5 -11 -16 23 -27 5 -200 -26 -261 -23 -43 -88 -99 -136 -117 -25 -10 -81 -20 -125 -23 l-80 -6 -2 -100 c-1 -55 -2 -124 -2 -152 l-1 -53 -95 0 -94 0 -3 188 c-2 103 -1 193 1 200 2 6 13 12 26 12 36 0 49 23 36 63 -7 19 -8 42 -4 53 7 18 6 18 -20 1 -14 -9 -28 -17 -31 -17 -9 0 -14 223 -6 301 l5 47 70 11 c86 14 192 18 225 9 14 -3 46 -11 72 -17z m-710 13 c11 -3 20 -19 23 -42 3 -20 12 -50 19 -67 8 -16 26 -84 40 -150 15 -66 33 -146 41 -177 20 -76 19 -114 -3 -136 -13 -13 -17 -29 -14 -60 4 -38 6 -42 26 -36 11 4 24 11 28 17 7 12 20 -15 36 -78 6 -22 15 -59 21 -81 6 -23 11 -44 11 -48 0 -3 -45 -6 -99 -6 l-99 0 -17 50 c-17 51 -30 60 -54 38 -11 -11 -11 -9 0 9 7 12 17 19 21 17 4 -3 8 4 8 16 0 12 -4 18 -10 15 -14 -8 -13 8 1 22 24 24 -3 33 -101 33 l-98 0 -7 -42 c-7 -43 -20 -93 -36 -135 -8 -22 -14 -23 -104 -23 -52 0 -95 4 -95 9 0 4 18 71 39 147 21 77 44 159 49 184 6 25 16 63 22 85 7 22 18 70 24 106 7 36 16 71 19 76 4 5 18 54 32 109 42 165 29 151 153 152 59 1 115 -1 124 -4z m1213 -434 l0 -425 -97 -3 -98 -3 -1 323 c-1 178 -1 346 -1 373 -1 28 0 76 1 108 l1 58 98 -3 97 -3 0 -425z m-1988 384 c-3 -3 -12 -4 -19 -1 -8 3 -5 6 6 6 11 1 17 -2 13 -5z m60 -1 c-4 -3 -10 -3 -14 0 -3 4 0 7 7 7 7 0 10 -3 7 -7z m2500 -35 c-3 -8 -6 -5 -6 6 -1 11 2 17 5 13 3 -3 4 -12 1 -19z m-2630 -35 c-4 -3 -10 -3 -14 0 -3 4 0 7 7 7 7 0 10 -3 7 -7z m1103 -8 c-35 -10 -39 -13 -18 -14 41 -2 46 -45 7 -69 -15 -10 -19 -10 -19 1 0 7 -10 17 -22 22 -15 6 -23 18 -22 33 1 17 -6 24 -30 31 -24 7 -11 9 59 9 l90 0 -45 -13z m-1093 -52 c-4 -3 -7 0 -7 7 0 7 3 10 7 7 3 -4 3 -10 0 -14z m-37 -47 c0 -2 -7 -6 -15 -10 -8 -3 -15 -1 -15 4 0 6 7 10 15 10 8 0 15 -2 15 -4z m1115 -16 c-3 -5 -13 -10 -21 -10 -8 0 -14 5 -14 10 0 6 9 10 21 10 11 0 17 -4 14 -10z m-1015 -71 c0 -5 -10 -9 -21 -9 -18 0 -19 2 -9 15 12 15 30 12 30 -6z m57 -31 c-3 -8 -6 -5 -6 6 -1 11 2 17 5 13 3 -3 4 -12 1 -19z m-110 -35 c-4 -3 -10 -3 -14 0 -3 4 0 7 7 7 7 0 10 -3 7 -7z m50 -10 c-4 -3 -7 0 -7 7 0 7 3 10 7 7 3 -4 3 -10 0 -14z m1163 -59 c0 -2 -9 -4 -21 -4 -11 0 -18 4 -14 10 5 8 35 3 35 -6z m-143 -51 c-4 -3 -10 -3 -14 0 -3 4 0 7 7 7 7 0 10 -3 7 -7z m-294 -240 c-8 -23 -23 -32 -39 -26 -9 3 -8 9 4 23 22 24 43 26 35 3z m-107 -82 c-10 -11 -15 -25 -11 -30 3 -6 2 -11 -4 -11 -17 0 -19 25 -2 42 22 24 38 22 17 -1z m104 0 c0 -9 -61 -51 -74 -51 -3 0 -6 5 -6 10 0 6 3 9 8 8 13 -4 53 23 47 33 -4 5 1 9 9 9 9 0 16 -4 16 -9z m2027 -83 c-3 -8 -6 -5 -6 6 -1 11 2 17 5 13 3 -3 4 -12 1 -19z m-2120 -5 c-4 -3 -7 0 -7 7 0 7 3 10 7 7 3 -4 3 -10 0 -14z m-469 -35 c-2 -6 -10 -14 -16 -16 -7 -2 -10 2 -6 12 7 18 28 22 22 4z m-268 -22 c0 -18 -17 -29 -30 -21 -8 5 -7 11 1 21 15 18 29 18 29 0z m267 -53 c-4 -3 -10 -3 -14 0 -3 4 0 7 7 7 7 0 10 -3 7 -7z m-131 -20 c16 -21 18 -53 4 -53 -5 0 -10 7 -10 15 0 13 -8 15 -41 10 -28 -4 -39 -3 -34 4 3 6 12 11 19 11 8 0 19 7 26 15 16 19 20 19 36 -2z m2414 -63 c0 -5 -4 -10 -9 -10 -6 0 -13 5 -16 10 -3 6 1 10 9 10 9 0 16 -4 16 -10z m70 6 c0 -9 -30 -14 -35 -6 -4 6 3 10 14 10 12 0 21 -2 21 -4z m40 -6 c8 -5 12 -11 9 -14 -3 -3 -14 1 -25 9 -21 16 -8 20 16 5z m-2636 -15 c11 -8 29 -13 40 -10 21 6 21 6 1 -10 -11 -9 -32 -23 -47 -31 -26 -13 -27 -13 -42 18 -9 17 -16 32 -16 34 0 2 24 10 40 13 3 0 14 -6 24 -14z m123 -121 c-3 -3 -12 -4 -19 -1 -8 3 -5 6 6 6 11 1 17 -2 13 -5z m-180 -21 c-4 -3 -7 0 -7 7 0 7 3 10 7 7 3 -4 3 -10 0 -14z"/> <path d="M1295 1240 c-3 -5 3 -10 14 -10 12 0 21 5 21 10 0 6 -6 10 -14 10 -8 0 -18 -4 -21 -10z"/> <path d="M1477 1123 c-12 -20 -11 -106 1 -110 6 -3 12 2 12 11 0 9 4 16 8 16 5 0 28 17 52 37 38 32 40 38 24 44 -25 10 -92 11 -97 2z"/> <path d="M1538 1047 c-65 -50 -67 -53 -67 -97 -1 -64 8 -74 60 -65 63 11 109 59 109 114 0 34 -23 104 -33 100 -1 0 -32 -24 -69 -52z"/> <path d="M1415 960 c3 -5 11 -10 16 -10 6 0 7 5 4 10 -3 6 -11 10 -16 10 -6 0 -7 -4 -4 -10z"/> <path d="M788 997 c-9 -45 -23 -109 -32 -142 -23 -89 -25 -85 54 -85 39 0 70 3 70 8 0 4 -6 36 -14 72 -31 145 -48 215 -55 222 -4 4 -14 -29 -23 -75z"/> <path d="M1635 1600 c4 -6 11 -8 16 -5 14 9 11 15 -7 15 -8 0 -12 -5 -9 -10z"/> <path d="M2507 1593 c-9 -33 -1 -63 21 -79 21 -14 23 -14 32 10 13 34 -6 86 -30 86 -10 0 -21 -8 -23 -17z"/> <path d="M2890 1541 l0 -71 41 -25 c70 -45 69 -46 69 37 l0 74 -47 25 c-26 13 -51 26 -55 27 -5 2 -8 -28 -8 -67z"/> <path d="M2958 1590 c40 -25 42 -25 42 0 0 16 -7 20 -37 20 l-38 0 33 -20z"/> <path d="M1672 1570 c0 -19 2 -27 5 -17 2 9 2 25 0 35 -3 9 -5 1 -5 -18z"/> <path d="M1610 1560 c-12 -7 -12 -12 -3 -21 10 -10 14 -9 19 5 8 22 2 27 -16 16z"/> <path d="M2423 1538 c-5 -7 -8 -32 -5 -55 3 -33 8 -43 22 -43 23 0 27 13 20 63 -5 42 -20 56 -37 35z"/> <path d="M1663 1415 c-3 -9 -3 -19 1 -22 8 -9 37 18 30 28 -8 14 -24 11 -31 -6z"/> </g> </svg> 